<svg width="572" height="414" viewBox="0 0 572 414" fill="none" xmlns="http://www.w3.org/2000/svg">
<g clip-path="url(#clip0)">
<path d="M571.173 410.024H0.82659C0.607364 410.024 0.397117 409.937 0.242102 409.782C0.0870862 409.627 0 409.417 0 409.197C0 408.978 0.0870862 408.768 0.242102 408.613C0.397117 408.458 0.607364 408.371 0.82659 408.371H571.173C571.393 408.371 571.603 408.458 571.758 408.613C571.913 408.768 572 408.978 572 409.197C572 409.417 571.913 409.627 571.758 409.782C571.603 409.937 571.393 410.024 571.173 410.024Z" fill="#CCCCCC"/>
<path d="M514.721 265.865H179.126C177.701 265.865 176.334 266.431 175.326 267.439C174.319 268.447 173.753 269.813 173.753 271.238C173.753 272.663 174.319 274.03 175.326 275.037C176.334 276.045 177.701 276.611 179.126 276.611H188.631V405.146C188.631 406.571 189.197 407.937 190.205 408.945C191.213 409.953 192.579 410.519 194.004 410.519C195.429 410.519 196.796 409.953 197.803 408.945C198.811 407.937 199.377 406.571 199.377 405.146L199.459 276.611H493.643V405.146C493.643 406.571 494.209 407.937 495.217 408.945C496.224 409.953 497.591 410.519 499.016 410.519C500.441 410.519 501.807 409.953 502.815 408.945C503.823 407.937 504.389 406.571 504.389 405.146V279.444L505.952 276.611H514.721C516.146 276.611 517.513 276.045 518.52 275.037C519.528 274.03 520.094 272.663 520.094 271.238C520.094 269.813 519.528 268.447 518.52 267.439C517.513 266.431 516.146 265.865 514.721 265.865V265.865Z" fill="#CCCCCC"/>
<path d="M365.182 268.677H263.527C261.559 268.675 259.671 267.892 258.28 266.5C256.888 265.108 256.105 263.221 256.103 261.253V205.285C256.105 203.317 256.888 201.43 258.28 200.038C259.671 198.646 261.559 197.863 263.527 197.861H365.182C367.151 197.863 369.038 198.646 370.43 200.038C371.822 201.43 372.604 203.317 372.607 205.285V261.253C372.604 263.221 371.822 265.108 370.43 266.5C369.038 267.892 367.151 268.675 365.182 268.677V268.677Z" fill="#3F3D56"/>
<path d="M365.182 203.575H263.527C263.074 203.576 262.639 203.757 262.319 204.077C261.998 204.398 261.817 204.833 261.817 205.286V261.254C261.817 261.708 261.998 262.143 262.319 262.463C262.639 262.784 263.074 262.964 263.527 262.965H365.182C365.635 262.964 366.07 262.784 366.391 262.463C366.711 262.143 366.892 261.708 366.893 261.254V205.286C366.892 204.833 366.711 204.398 366.391 204.077C366.07 203.757 365.635 203.576 365.182 203.575V203.575Z" fill="white"/>
<path d="M323.025 243.2C323.025 243.2 310.855 240.396 304.162 245.537C297.469 250.678 312.681 262.362 312.681 262.362L323.025 243.2Z" fill="#2F2E41"/>
<path d="M314.951 237.902C321.29 237.902 326.43 232.763 326.43 226.423C326.43 220.083 321.29 214.944 314.951 214.944C308.611 214.944 303.472 220.083 303.472 226.423C303.472 232.763 308.611 237.902 314.951 237.902Z" fill="#A0616A"/>
<path d="M306.074 210.309C306.84 209.01 307.949 207.948 309.281 207.239C310.612 206.531 312.113 206.204 313.618 206.296C315.193 206.493 316.729 206.923 318.177 207.572L325.681 210.499C327.623 211.256 329.75 212.184 330.592 214.091C331.374 215.86 330.791 217.903 330.2 219.745L327.393 228.502C327.082 226.52 326.548 224.58 325.802 222.718C325.043 220.843 323.673 219.28 321.913 218.284C319.964 217.284 317.666 217.305 315.478 217.41C312.379 217.559 309.01 217.953 306.808 220.139C305.639 221.38 304.847 222.928 304.523 224.602C304.204 226.267 304.044 227.959 304.044 229.654C302.773 227.469 301.702 225.174 300.845 222.797C300.14 221.027 299.738 219.15 299.657 217.247C299.583 215.327 300.22 213.447 301.446 211.967C302.068 211.244 302.88 210.709 303.79 210.423C304.7 210.136 305.672 210.11 306.596 210.346L306.074 210.309Z" fill="#2F2E41"/>
<path d="M342.359 253.154C342.252 252.766 342.032 252.419 341.727 252.156C341.423 251.892 341.048 251.725 340.648 251.674C340.622 251.656 340.594 251.639 340.566 251.625L323.429 242.021C322.94 241.747 322.364 241.672 321.821 241.812C321.277 241.952 320.809 242.295 320.513 242.772L315.826 250.36L308.767 243.301L308.655 243.189C308.293 242.826 307.814 242.603 307.304 242.559C306.793 242.514 306.284 242.651 305.864 242.945L291.78 252.807C291.756 252.807 291.731 252.815 291.706 252.815C291.032 252.927 290.417 253.266 289.961 253.776C289.506 254.285 289.238 254.935 289.201 255.617L288.838 262.965H345.079L342.359 253.154Z" fill="#6C63FF"/>
<path d="M373.749 261.824H362.898C362.898 261.521 362.778 261.231 362.563 261.016C362.349 260.802 362.059 260.682 361.756 260.682H358.329C358.026 260.682 357.736 260.802 357.522 261.016C357.307 261.231 357.187 261.521 357.187 261.824H353.76C353.76 261.521 353.64 261.231 353.426 261.016C353.212 260.802 352.921 260.682 352.618 260.682H349.192C348.889 260.682 348.598 260.802 348.384 261.016C348.17 261.231 348.049 261.521 348.049 261.824H344.623C344.623 261.521 344.502 261.231 344.288 261.016C344.074 260.802 343.784 260.682 343.481 260.682H340.054C339.751 260.682 339.461 260.802 339.246 261.016C339.032 261.231 338.912 261.521 338.912 261.824H335.485C335.485 261.521 335.365 261.231 335.151 261.016C334.937 260.802 334.646 260.682 334.343 260.682H330.916C330.614 260.682 330.323 260.802 330.109 261.016C329.895 261.231 329.774 261.521 329.774 261.824H326.348C326.348 261.521 326.227 261.231 326.013 261.016C325.799 260.802 325.508 260.682 325.205 260.682H321.779C321.476 260.682 321.185 260.802 320.971 261.016C320.757 261.231 320.637 261.521 320.637 261.824H317.21C317.21 261.521 317.09 261.231 316.876 261.016C316.661 260.802 316.371 260.682 316.068 260.682H312.641C312.338 260.682 312.048 260.802 311.834 261.016C311.619 261.231 311.499 261.521 311.499 261.824H308.073C308.073 261.521 307.952 261.231 307.738 261.016C307.524 260.802 307.233 260.682 306.93 260.682H303.504C303.201 260.682 302.91 260.802 302.696 261.016C302.482 261.231 302.362 261.521 302.362 261.824H298.935C298.935 261.521 298.815 261.231 298.6 261.016C298.386 260.802 298.096 260.682 297.793 260.682H294.366C294.063 260.682 293.773 260.802 293.559 261.016C293.344 261.231 293.224 261.521 293.224 261.824H289.797C289.797 261.521 289.677 261.231 289.463 261.016C289.249 260.802 288.958 260.682 288.655 260.682H285.229C284.926 260.682 284.635 260.802 284.421 261.016C284.207 261.231 284.086 261.521 284.086 261.824H280.66C280.66 261.521 280.539 261.231 280.325 261.016C280.111 260.802 279.821 260.682 279.518 260.682H276.091C275.788 260.682 275.498 260.802 275.283 261.016C275.069 261.231 274.949 261.521 274.949 261.824H271.522C271.522 261.521 271.402 261.231 271.188 261.016C270.974 260.802 270.683 260.682 270.38 260.682H266.953C266.651 260.682 266.36 260.802 266.146 261.016C265.932 261.231 265.811 261.521 265.811 261.824H254.96C254.053 261.825 253.182 262.187 252.541 262.83C251.899 263.472 251.539 264.343 251.539 265.251C251.539 266.158 251.899 267.029 252.541 267.672C253.182 268.314 254.053 268.676 254.96 268.677H373.749C374.658 268.677 375.529 268.316 376.172 267.674C376.814 267.031 377.175 266.159 377.175 265.251C377.175 264.342 376.814 263.47 376.172 262.828C375.529 262.185 374.658 261.824 373.749 261.824V261.824Z" fill="#3F3D56"/>
<path d="M237.297 241.925V264.677H180.293C178.766 264.73 177.244 264.476 175.817 263.928C174.39 263.38 173.089 262.551 171.989 261.489C170.89 260.427 170.016 259.155 169.419 257.748C168.822 256.342 168.514 254.829 168.514 253.301C168.514 251.773 168.822 250.26 169.419 248.854C170.016 247.447 170.89 246.175 171.989 245.113C173.089 244.052 174.39 243.222 175.817 242.674C177.244 242.127 178.766 241.872 180.293 241.925H237.297Z" fill="#F2F2F2"/>
<path d="M238.697 264.502C238.697 264.734 238.604 264.957 238.44 265.121C238.276 265.285 238.054 265.377 237.822 265.377H179.278C176.098 265.377 173.049 264.114 170.8 261.866C168.552 259.618 167.289 256.568 167.289 253.389C167.289 250.209 168.552 247.16 170.8 244.911C173.049 242.663 176.098 241.4 179.278 241.4H237.822C238.054 241.4 238.276 241.492 238.44 241.656C238.605 241.82 238.697 242.043 238.697 242.275C238.697 242.507 238.605 242.73 238.44 242.894C238.276 243.058 238.054 243.15 237.822 243.15H179.278C176.564 243.152 173.962 244.232 172.044 246.152C170.126 248.072 169.048 250.675 169.048 253.389C169.048 256.102 170.126 258.705 172.044 260.625C173.962 262.545 176.564 263.625 179.278 263.627H237.822C238.054 263.627 238.276 263.719 238.44 263.884C238.604 264.048 238.697 264.27 238.697 264.502V264.502Z" fill="#6C63FF"/>
<path d="M237.297 247.175H176.04C176.017 247.176 175.994 247.171 175.973 247.162C175.951 247.154 175.932 247.141 175.915 247.125C175.899 247.108 175.886 247.089 175.877 247.068C175.868 247.046 175.864 247.023 175.864 247C175.864 246.977 175.868 246.954 175.877 246.933C175.886 246.912 175.899 246.892 175.915 246.876C175.932 246.86 175.951 246.847 175.973 246.838C175.994 246.83 176.017 246.825 176.04 246.825H237.297C237.343 246.826 237.387 246.844 237.42 246.877C237.452 246.91 237.47 246.954 237.47 247C237.47 247.047 237.452 247.091 237.42 247.124C237.387 247.156 237.343 247.175 237.297 247.175V247.175Z" fill="#CCCCCC"/>
<path d="M237.297 251.376H176.04C176.017 251.376 175.994 251.372 175.973 251.363C175.951 251.354 175.932 251.341 175.915 251.325C175.899 251.309 175.886 251.289 175.877 251.268C175.868 251.247 175.864 251.224 175.864 251.201C175.864 251.178 175.868 251.155 175.877 251.134C175.886 251.112 175.899 251.093 175.915 251.077C175.932 251.06 175.951 251.048 175.973 251.039C175.994 251.03 176.017 251.026 176.04 251.026H237.297C237.343 251.026 237.387 251.045 237.42 251.077C237.452 251.11 237.47 251.155 237.47 251.201C237.47 251.247 237.452 251.291 237.42 251.324C237.387 251.357 237.343 251.376 237.297 251.376V251.376Z" fill="#CCCCCC"/>
<path d="M237.297 255.576H176.04C176.017 255.576 175.994 255.572 175.973 255.563C175.951 255.555 175.932 255.542 175.915 255.525C175.899 255.509 175.886 255.49 175.877 255.469C175.868 255.447 175.864 255.424 175.864 255.401C175.864 255.378 175.868 255.355 175.877 255.334C175.886 255.313 175.899 255.293 175.915 255.277C175.932 255.261 175.951 255.248 175.973 255.239C175.994 255.231 176.017 255.226 176.04 255.226H237.297C237.343 255.227 237.387 255.245 237.42 255.278C237.452 255.311 237.47 255.355 237.47 255.401C237.47 255.448 237.452 255.492 237.42 255.525C237.387 255.557 237.343 255.576 237.297 255.576V255.576Z" fill="#CCCCCC"/>
<path d="M237.297 259.777H176.04C176.017 259.777 175.994 259.772 175.973 259.764C175.951 259.755 175.932 259.742 175.915 259.726C175.899 259.71 175.886 259.69 175.877 259.669C175.868 259.648 175.864 259.625 175.864 259.602C175.864 259.579 175.868 259.556 175.877 259.534C175.886 259.513 175.899 259.494 175.915 259.478C175.932 259.461 175.951 259.448 175.973 259.44C175.994 259.431 176.017 259.427 176.04 259.427H237.297C237.343 259.427 237.387 259.446 237.42 259.478C237.452 259.511 237.47 259.555 237.47 259.602C237.47 259.648 237.452 259.692 237.42 259.725C237.387 259.758 237.343 259.776 237.297 259.777Z" fill="#CCCCCC"/>
<path d="M226.551 217.954V240.706H169.547C168.02 240.759 166.498 240.504 165.071 239.957C163.645 239.409 162.343 238.579 161.244 237.518C160.144 236.456 159.27 235.184 158.673 233.777C158.076 232.371 157.768 230.858 157.768 229.33C157.768 227.802 158.076 226.289 158.673 224.883C159.27 223.476 160.144 222.204 161.244 221.142C162.343 220.08 163.645 219.251 165.071 218.703C166.498 218.155 168.02 217.901 169.547 217.954H226.551Z" fill="#F2F2F2"/>
<path d="M227.951 240.531C227.951 240.763 227.859 240.986 227.695 241.15C227.531 241.314 227.308 241.406 227.076 241.406H168.532C166.958 241.406 165.399 241.096 163.944 240.494C162.49 239.891 161.168 239.008 160.055 237.895C158.942 236.782 158.058 235.46 157.456 234.005C156.853 232.551 156.543 230.992 156.543 229.417C156.543 227.843 156.853 226.284 157.456 224.83C158.058 223.375 158.942 222.053 160.055 220.94C161.168 219.827 162.49 218.944 163.944 218.341C165.399 217.739 166.958 217.429 168.532 217.429H227.076C227.308 217.429 227.531 217.521 227.695 217.685C227.859 217.849 227.951 218.072 227.951 218.304C227.951 218.536 227.859 218.758 227.695 218.923C227.531 219.087 227.308 219.179 227.076 219.179H168.532C165.818 219.181 163.216 220.261 161.298 222.181C159.38 224.101 158.303 226.704 158.303 229.417C158.303 232.131 159.38 234.734 161.298 236.654C163.216 238.574 165.818 239.654 168.532 239.656H227.076C227.308 239.656 227.531 239.748 227.695 239.912C227.859 240.077 227.951 240.299 227.951 240.531V240.531Z" fill="#3F3D56"/>
<path d="M226.551 223.204H165.294C165.271 223.204 165.248 223.2 165.227 223.191C165.206 223.183 165.186 223.17 165.17 223.153C165.153 223.137 165.14 223.118 165.131 223.097C165.123 223.075 165.118 223.052 165.118 223.029C165.118 223.006 165.123 222.983 165.131 222.962C165.14 222.941 165.153 222.921 165.17 222.905C165.186 222.889 165.206 222.876 165.227 222.867C165.248 222.858 165.271 222.854 165.294 222.854H226.551C226.597 222.855 226.641 222.873 226.674 222.906C226.706 222.939 226.725 222.983 226.725 223.029C226.725 223.075 226.706 223.12 226.674 223.153C226.641 223.185 226.597 223.204 226.551 223.204V223.204Z" fill="#CCCCCC"/>
<path d="M226.551 227.405H165.294C165.271 227.405 165.248 227.4 165.227 227.392C165.206 227.383 165.186 227.37 165.17 227.354C165.153 227.338 165.14 227.318 165.131 227.297C165.123 227.276 165.118 227.253 165.118 227.23C165.118 227.207 165.123 227.184 165.131 227.162C165.14 227.141 165.153 227.122 165.17 227.106C165.186 227.089 165.206 227.076 165.227 227.068C165.248 227.059 165.271 227.055 165.294 227.055H226.551C226.597 227.055 226.641 227.074 226.674 227.106C226.706 227.139 226.725 227.184 226.725 227.23C226.725 227.276 226.706 227.32 226.674 227.353C226.641 227.386 226.597 227.404 226.551 227.405V227.405Z" fill="#CCCCCC"/>
<path d="M226.551 231.605H165.294C165.271 231.605 165.248 231.601 165.227 231.592C165.206 231.584 165.186 231.571 165.17 231.554C165.153 231.538 165.14 231.519 165.131 231.497C165.123 231.476 165.118 231.453 165.118 231.43C165.118 231.407 165.123 231.384 165.131 231.363C165.14 231.342 165.153 231.322 165.17 231.306C165.186 231.29 165.206 231.277 165.227 231.268C165.248 231.259 165.271 231.255 165.294 231.255H226.551C226.597 231.255 226.641 231.274 226.674 231.307C226.706 231.34 226.725 231.384 226.725 231.43C226.725 231.476 226.706 231.521 226.674 231.554C226.641 231.586 226.597 231.605 226.551 231.605V231.605Z" fill="#CCCCCC"/>
<path d="M226.551 235.806H165.294C165.271 235.806 165.248 235.801 165.227 235.793C165.206 235.784 165.186 235.771 165.17 235.755C165.153 235.739 165.14 235.719 165.131 235.698C165.123 235.677 165.118 235.654 165.118 235.631C165.118 235.608 165.123 235.585 165.131 235.563C165.14 235.542 165.153 235.523 165.17 235.506C165.186 235.49 165.206 235.477 165.227 235.469C165.248 235.46 165.271 235.455 165.294 235.456H226.551C226.597 235.456 226.641 235.474 226.674 235.507C226.706 235.54 226.725 235.584 226.725 235.631C226.725 235.677 226.706 235.721 226.674 235.754C226.641 235.787 226.597 235.805 226.551 235.806Z" fill="#CCCCCC"/>
<path d="M292.863 345.55V325.712C292.863 324.835 292.515 323.994 291.895 323.374C291.275 322.754 290.434 322.406 289.557 322.406H214.337C213.46 322.406 212.619 322.754 211.999 323.374C211.379 323.994 211.031 324.835 211.031 325.712V345.55H292.863Z" fill="#CCCCCC"/>
<path d="M292.863 352.989H211.031V378.614H292.863V352.989Z" fill="#CCCCCC"/>
<path d="M211.031 386.053V405.891C211.031 406.768 211.379 407.609 211.999 408.229C212.619 408.849 213.46 409.197 214.337 409.197H289.557C290.434 409.197 291.275 408.849 291.895 408.229C292.515 407.609 292.863 406.768 292.863 405.891V386.053H211.031Z" fill="#CCCCCC"/>
<path d="M251.534 337.284C252.903 337.284 254.014 336.174 254.014 334.804C254.014 333.435 252.903 332.325 251.534 332.325C250.164 332.325 249.054 333.435 249.054 334.804C249.054 336.174 250.164 337.284 251.534 337.284Z" fill="white"/>
<path d="M251.534 370.348C252.903 370.348 254.014 369.237 254.014 367.868C254.014 366.498 252.903 365.388 251.534 365.388C250.164 365.388 249.054 366.498 249.054 367.868C249.054 369.237 250.164 370.348 251.534 370.348Z" fill="white"/>
<path d="M251.667 402.711C253.036 402.711 254.147 401.601 254.147 400.231C254.147 398.862 253.036 397.752 251.667 397.752C250.297 397.752 249.187 398.862 249.187 400.231C249.187 401.601 250.297 402.711 251.667 402.711Z" fill="white"/>
<path d="M283.586 299.786V322.539H226.582C225.055 322.592 223.533 322.337 222.106 321.789C220.679 321.241 219.378 320.412 218.278 319.35C217.179 318.289 216.305 317.016 215.708 315.61C215.111 314.203 214.803 312.691 214.803 311.162C214.803 309.634 215.111 308.122 215.708 306.715C216.305 305.308 217.179 304.036 218.278 302.974C219.378 301.913 220.679 301.083 222.106 300.536C223.533 299.988 225.055 299.733 226.582 299.786H283.586Z" fill="#F2F2F2"/>
<path d="M284.986 322.364C284.986 322.596 284.893 322.818 284.729 322.982C284.565 323.146 284.343 323.239 284.111 323.239H225.567C223.992 323.24 222.432 322.931 220.976 322.329C219.52 321.727 218.197 320.844 217.083 319.731C215.969 318.617 215.085 317.295 214.482 315.84C213.878 314.385 213.568 312.825 213.568 311.25C213.568 309.675 213.878 308.115 214.482 306.66C215.085 305.204 215.969 303.882 217.083 302.769C218.197 301.656 219.52 300.773 220.976 300.171C222.432 299.569 223.992 299.26 225.567 299.261H284.111C284.343 299.261 284.565 299.353 284.729 299.517C284.894 299.681 284.986 299.904 284.986 300.136C284.986 300.368 284.894 300.591 284.729 300.755C284.565 300.919 284.343 301.011 284.111 301.011H225.567C222.853 301.014 220.251 302.093 218.333 304.013C216.415 305.933 215.337 308.536 215.337 311.25C215.337 313.964 216.415 316.566 218.333 318.486C220.251 320.406 222.853 321.486 225.567 321.488H284.111C284.343 321.489 284.565 321.581 284.729 321.745C284.893 321.909 284.986 322.131 284.986 322.364V322.364Z" fill="#3F3D56"/>
<path d="M283.586 305.037H222.329C222.306 305.037 222.283 305.032 222.262 305.024C222.24 305.015 222.221 305.002 222.204 304.986C222.188 304.97 222.175 304.95 222.166 304.929C222.157 304.908 222.153 304.885 222.153 304.862C222.153 304.839 222.157 304.816 222.166 304.794C222.175 304.773 222.188 304.754 222.204 304.737C222.221 304.721 222.24 304.708 222.262 304.7C222.283 304.691 222.306 304.686 222.329 304.687H283.586C283.632 304.687 283.676 304.706 283.709 304.738C283.741 304.771 283.759 304.815 283.759 304.862C283.759 304.908 283.741 304.952 283.709 304.985C283.676 305.018 283.632 305.036 283.586 305.037V305.037Z" fill="#CCCCCC"/>
<path d="M283.586 309.237H222.329C222.306 309.237 222.283 309.233 222.262 309.224C222.24 309.215 222.221 309.203 222.204 309.186C222.188 309.17 222.175 309.151 222.166 309.129C222.157 309.108 222.153 309.085 222.153 309.062C222.153 309.039 222.157 309.016 222.166 308.995C222.175 308.974 222.188 308.954 222.204 308.938C222.221 308.922 222.24 308.909 222.262 308.9C222.283 308.891 222.306 308.887 222.329 308.887H283.586C283.632 308.887 283.676 308.906 283.709 308.939C283.741 308.972 283.759 309.016 283.759 309.062C283.759 309.108 283.741 309.153 283.709 309.185C283.676 309.218 283.632 309.237 283.586 309.237V309.237Z" fill="#CCCCCC"/>
<path d="M283.586 313.438H222.329C222.306 313.438 222.283 313.433 222.262 313.425C222.24 313.416 222.221 313.403 222.204 313.387C222.188 313.37 222.175 313.351 222.166 313.33C222.157 313.309 222.153 313.286 222.153 313.263C222.153 313.239 222.157 313.217 222.166 313.195C222.175 313.174 222.188 313.155 222.204 313.138C222.221 313.122 222.24 313.109 222.262 313.101C222.283 313.092 222.306 313.087 222.329 313.088H283.586C283.632 313.088 283.676 313.106 283.709 313.139C283.741 313.172 283.759 313.216 283.759 313.263C283.759 313.309 283.741 313.353 283.709 313.386C283.676 313.419 283.632 313.437 283.586 313.438V313.438Z" fill="#CCCCCC"/>
<path d="M283.586 317.638H222.329C222.306 317.638 222.283 317.634 222.262 317.625C222.24 317.616 222.221 317.603 222.204 317.587C222.188 317.571 222.175 317.552 222.166 317.53C222.157 317.509 222.153 317.486 222.153 317.463C222.153 317.44 222.157 317.417 222.166 317.396C222.175 317.374 222.188 317.355 222.204 317.339C222.221 317.323 222.24 317.31 222.262 317.301C222.283 317.292 222.306 317.288 222.329 317.288H283.586C283.632 317.288 283.676 317.307 283.709 317.34C283.741 317.372 283.759 317.417 283.759 317.463C283.759 317.509 283.741 317.554 283.709 317.586C283.676 317.619 283.632 317.638 283.586 317.638V317.638Z" fill="#CCCCCC"/>
<path d="M206.739 151.284V6.21714C206.74 4.56883 207.396 2.98857 208.562 1.82304C209.727 0.657502 211.307 0.0018749 212.956 0H327.627C329.276 0.00188582 330.856 0.657517 332.021 1.82305C333.187 2.98858 333.843 4.56883 333.844 6.21714V151.284C333.843 152.932 333.187 154.512 332.021 155.678C330.856 156.843 329.276 157.499 327.627 157.501H212.956C211.307 157.499 209.727 156.843 208.562 155.678C207.396 154.512 206.74 152.932 206.739 151.284V151.284ZM212.956 1.38159C211.674 1.38302 210.445 1.89295 209.538 2.79948C208.632 3.70601 208.122 4.93512 208.12 6.21714V151.284C208.122 152.566 208.632 153.795 209.538 154.701C210.445 155.608 211.674 156.118 212.956 156.119H327.627C328.909 156.118 330.138 155.608 331.045 154.701C331.952 153.795 332.461 152.566 332.463 151.284V6.21714C332.461 4.93512 331.952 3.70601 331.045 2.79948C330.138 1.89295 328.909 1.38303 327.627 1.38159H212.956Z" fill="#E6E6E6"/>
<path d="M276.722 66.6212V36.8345C276.723 36.0103 277.051 35.2202 277.633 34.6374C278.216 34.0546 279.006 33.7268 279.831 33.7259H305.072C305.896 33.7268 306.686 34.0546 307.269 34.6374C307.852 35.2202 308.18 36.0103 308.181 36.8345V66.6212C308.18 67.4454 307.852 68.2355 307.269 68.8183C306.686 69.401 305.896 69.7288 305.072 69.7298H279.831C279.006 69.7288 278.216 69.401 277.633 68.8183C277.051 68.2355 276.723 67.4454 276.722 66.6212V66.6212Z" fill="#6C63FF"/>
<path d="M227.676 80.437V50.6504C227.677 49.8262 228.004 49.0361 228.587 48.4533C229.17 47.8705 229.96 47.5427 230.784 47.5418H256.026C256.85 47.5427 257.64 47.8705 258.223 48.4533C258.806 49.0361 259.133 49.8262 259.134 50.6504V80.4371C259.133 81.2613 258.806 82.0514 258.223 82.6342C257.64 83.217 256.85 83.5447 256.026 83.5457H230.784C229.96 83.5447 229.17 83.2169 228.587 82.6342C228.004 82.0514 227.677 81.2612 227.676 80.437V80.437Z" fill="#CCCCCC"/>
<path d="M267.051 122.575V92.7887C267.052 91.9645 267.38 91.1744 267.962 90.5916C268.545 90.0088 269.335 89.6811 270.159 89.6801H295.401C296.225 89.6811 297.015 90.0088 297.598 90.5916C298.181 91.1744 298.509 91.9645 298.509 92.7887V122.575C298.509 123.4 298.181 124.19 297.598 124.773C297.015 125.355 296.225 125.683 295.401 125.684H270.159C269.335 125.683 268.545 125.355 267.962 124.773C267.38 124.19 267.052 123.4 267.051 122.575V122.575Z" fill="#FF6584"/>
<path d="M417.893 258.758H391.922C391.675 258.758 391.432 258.815 391.211 258.923L384.656 262.205C384.44 262.297 384.256 262.45 384.127 262.645C383.998 262.841 383.929 263.07 383.929 263.304C383.929 263.539 383.998 263.768 384.127 263.964C384.256 264.159 384.44 264.312 384.656 264.404L391.211 267.685C391.432 267.794 391.675 267.851 391.922 267.851H417.893C418.251 267.871 418.603 267.75 418.872 267.514C419.141 267.277 419.306 266.944 419.331 266.586V260.023C419.306 259.665 419.141 259.332 418.872 259.095C418.603 258.859 418.251 258.737 417.893 258.758Z" fill="#3F3D56"/>
<path d="M419.331 260.023V266.586C419.306 266.944 419.141 267.277 418.872 267.513C418.603 267.75 418.251 267.871 417.893 267.851H412.719V258.758H417.893C418.251 258.737 418.603 258.859 418.872 259.095C419.141 259.332 419.306 259.665 419.331 260.023V260.023Z" fill="#6C63FF"/>
<path d="M417.698 209.659C418.874 209.151 420.144 208.898 421.425 208.915C422.707 208.933 423.97 209.221 425.132 209.76C426.294 210.3 427.329 211.079 428.169 212.046C429.009 213.014 429.635 214.148 430.006 215.374C430.122 215.763 430.21 216.159 430.271 216.56L466.589 234.57L474.994 229L485.452 241.04L472.619 251.463C471.075 252.706 469.172 253.419 467.191 253.496C465.211 253.572 463.258 253.008 461.624 251.887L424.775 226.405C424.501 226.521 424.221 226.623 423.936 226.71C422.71 227.081 421.419 227.189 420.148 227.026C418.877 226.863 417.655 226.434 416.561 225.766C415.468 225.098 414.528 224.206 413.803 223.149C413.078 222.093 412.585 220.895 412.355 219.634C412.287 219.268 412.243 218.899 412.221 218.527C412.119 216.666 412.589 214.819 413.568 213.234C414.547 211.648 415.988 210.4 417.698 209.659V209.659Z" fill="#FFB8B8"/>
<path d="M493.343 320.544H453.658C453.658 321.685 412.759 322.611 412.759 322.611C412.117 323.094 411.532 323.649 411.015 324.264C409.461 326.117 408.612 328.459 408.617 330.877V332.53C408.618 335.27 409.707 337.898 411.645 339.835C413.582 341.773 416.21 342.861 418.95 342.862H493.343C496.082 342.86 498.709 341.771 500.646 339.834C502.583 337.896 503.673 335.27 503.675 332.53V330.877C503.671 328.138 502.581 325.512 500.645 323.575C498.708 321.638 496.082 320.548 493.343 320.544V320.544Z" fill="#3F3D56"/>
<path d="M450.175 411.886H460.921V342.452H450.175V411.886Z" fill="#3F3D56"/>
<path d="M419.591 411.508C419.591 412.669 435.875 411.957 455.961 411.957C476.048 411.957 492.331 412.669 492.331 411.508C492.331 410.347 476.048 401.14 455.961 401.14C435.875 401.14 419.591 410.347 419.591 411.508Z" fill="#3F3D56"/>
<path d="M429.292 403.37L419.159 403.369L414.337 377.086L429.293 377.087L429.292 403.37Z" fill="#FFB8B8"/>
<path d="M431.876 413.193L399.201 413.192V412.778C399.201 411.108 399.53 409.454 400.169 407.911C400.808 406.368 401.745 404.966 402.926 403.785C404.107 402.604 405.509 401.667 407.052 401.028C408.595 400.389 410.249 400.06 411.919 400.06H411.92L431.877 400.061L431.876 413.193Z" fill="#2F2E41"/>
<path d="M414.135 387.071L393.933 341.768C392.246 337.949 392.059 333.636 393.41 329.686C394.761 325.736 397.55 322.441 401.222 320.455L445.042 296.957L465.038 295.256L483.483 293.579L483.616 293.805C483.787 294.092 487.752 300.942 485.072 308.453C483.038 314.151 477.749 318.601 469.351 321.68C449.749 328.868 427.105 335.011 418.279 337.318C417.889 337.417 417.524 337.599 417.209 337.849C416.894 338.1 416.636 338.415 416.451 338.772C416.266 339.126 416.156 339.514 416.128 339.912C416.1 340.31 416.155 340.71 416.289 341.086L435.058 383.254C435.254 383.789 435.325 384.361 435.264 384.928C435.204 385.494 435.014 386.039 434.71 386.521C434.406 387.002 433.995 387.407 433.51 387.705C433.024 388.003 432.476 388.185 431.909 388.238L417.885 389.259C417.766 389.27 417.647 389.276 417.529 389.276C416.811 389.276 416.108 389.067 415.506 388.676C414.904 388.285 414.427 387.727 414.135 387.071V387.071Z" fill="#2F2E41"/>
<path d="M434.251 403.37L424.118 403.369L419.297 377.086L434.253 377.087L434.251 403.37Z" fill="#FFB8B8"/>
<path d="M436.836 413.193L404.16 413.192V412.778C404.16 411.108 404.489 409.454 405.128 407.911C405.768 406.368 406.704 404.966 407.885 403.785C409.066 402.604 410.469 401.667 412.012 401.028C413.555 400.389 415.208 400.06 416.879 400.06H416.88L436.837 400.061L436.836 413.193Z" fill="#2F2E41"/>
<path d="M419.921 389.551L399.719 344.248C398.032 340.429 397.845 336.116 399.196 332.166C400.547 328.216 403.336 324.92 407.008 322.935L450.828 299.437L470.825 297.736L489.27 296.059L489.403 296.284C489.573 296.572 493.539 303.422 490.858 310.933C488.824 316.63 483.535 321.08 475.137 324.16C455.535 331.347 432.891 337.49 424.065 339.797C423.675 339.897 423.311 340.078 422.996 340.329C422.681 340.58 422.422 340.894 422.237 341.252C422.052 341.606 421.942 341.994 421.914 342.392C421.886 342.79 421.941 343.19 422.075 343.566L440.844 385.734C441.04 386.269 441.111 386.841 441.05 387.408C440.99 387.974 440.801 388.519 440.496 389.001C440.192 389.482 439.781 389.887 439.296 390.185C438.81 390.483 438.263 390.665 437.695 390.717L423.671 391.739C423.552 391.75 423.433 391.756 423.315 391.756C422.597 391.755 421.894 391.547 421.292 391.156C420.69 390.764 420.214 390.207 419.921 389.551V389.551Z" fill="#2F2E41"/>
<path d="M409.852 251.154C401.362 239.862 394.651 227.337 389.951 214.014C389.679 213.217 389.698 212.35 390.006 211.566C390.313 210.782 390.889 210.132 391.631 209.733L420.681 194.167C421.151 193.913 421.673 193.77 422.207 193.749C422.74 193.727 423.272 193.827 423.761 194.042C424.259 194.259 424.701 194.586 425.054 194.999C425.406 195.412 425.66 195.9 425.795 196.426C429.177 209.264 435.532 221.126 444.349 231.052C444.712 231.456 444.978 231.938 445.126 232.46C445.275 232.983 445.303 233.532 445.207 234.067C445.115 234.593 444.904 235.091 444.59 235.523C444.277 235.956 443.869 236.311 443.397 236.561L414.346 252.127C413.603 252.524 412.744 252.643 411.921 252.465C411.098 252.287 410.364 251.823 409.852 251.154V251.154Z" fill="#CCCCCC"/>
<path d="M411.834 249.665C411.99 249.86 412.21 249.994 412.455 250.045C412.699 250.095 412.954 250.059 413.175 249.942L442.226 234.375C442.367 234.302 442.489 234.197 442.583 234.068C442.676 233.939 442.739 233.791 442.765 233.634C442.795 233.468 442.787 233.298 442.74 233.136C442.694 232.974 442.61 232.826 442.497 232.702C433.421 222.483 426.877 210.272 423.397 197.055C423.356 196.892 423.279 196.74 423.17 196.612C423.061 196.483 422.924 196.382 422.77 196.315C422.624 196.25 422.466 196.22 422.307 196.226C422.147 196.233 421.992 196.276 421.852 196.353L392.802 211.919C392.582 212.038 392.41 212.23 392.317 212.462C392.223 212.694 392.214 212.951 392.29 213.19C396.905 226.274 403.497 238.575 411.834 249.665V249.665Z" fill="white"/>
<path d="M506.363 247.002L483.611 255.648L478.056 240.218C477.319 238.169 477.329 235.926 478.086 233.884C478.842 231.842 480.296 230.133 482.191 229.06V229.06C484.107 227.974 486.349 227.609 488.511 228.031C490.673 228.453 492.613 229.634 493.98 231.361L506.363 247.002Z" fill="#6C63FF"/>
<path d="M448.493 308.137C448.014 307.798 447.613 307.361 447.316 306.856C447.019 306.35 446.833 305.787 446.771 305.203C443.857 278.001 445.887 256.712 452.975 240.122C454.224 237.261 456.105 234.719 458.476 232.689C460.848 230.659 463.649 229.193 466.669 228.401L485.06 227.473L485.156 227.519C489.306 229.552 492.69 232.868 494.808 236.975C496.925 241.083 497.662 245.764 496.909 250.323C490.994 265.915 486.041 282.149 489.818 295.245C489.977 295.793 490.023 296.366 489.954 296.932C489.885 297.498 489.703 298.044 489.418 298.538C489.142 299.015 488.771 299.43 488.328 299.759C487.885 300.087 487.38 300.321 486.843 300.446L451.813 308.779C451.246 308.914 450.656 308.927 450.084 308.816C449.511 308.705 448.969 308.474 448.493 308.137Z" fill="#6C63FF"/>
<path d="M478.923 220.604C490.135 220.604 499.225 211.514 499.225 200.302C499.225 189.089 490.135 180 478.923 180C467.71 180 458.621 189.089 458.621 200.302C458.621 211.514 467.71 220.604 478.923 220.604Z" fill="#FFB8B8"/>
<path d="M422.588 216.381L406.766 223.366C406.164 223.631 405.482 223.646 404.869 223.408C404.256 223.171 403.762 222.7 403.496 222.099L403.105 221.212C402.84 220.61 402.825 219.928 403.062 219.315C403.3 218.702 403.771 218.208 404.372 217.942L420.194 210.958C420.796 210.693 421.478 210.678 422.091 210.915C422.704 211.153 423.198 211.624 423.464 212.225L423.856 213.111C424.12 213.713 424.136 214.395 423.898 215.009C423.661 215.622 423.19 216.115 422.588 216.381V216.381Z" fill="#CCCCCC"/>
<path d="M428.375 227.127L412.552 234.111C411.951 234.376 411.268 234.392 410.655 234.154C410.042 233.917 409.549 233.445 409.282 232.844L408.891 231.958C408.626 231.356 408.611 230.674 408.848 230.061C409.086 229.448 409.557 228.954 410.158 228.688L425.98 221.703C426.582 221.439 427.264 221.423 427.877 221.661C428.491 221.898 428.984 222.369 429.25 222.971L429.642 223.857C429.907 224.459 429.922 225.141 429.684 225.754C429.447 226.367 428.976 226.861 428.375 227.127V227.127Z" fill="#CCCCCC"/>
<path d="M440.576 269.099L405.302 241.271C405.021 241.37 404.735 241.454 404.446 241.524C403.201 241.815 401.908 241.841 400.653 241.6C399.397 241.359 398.206 240.857 397.157 240.126C396.101 239.394 395.214 238.445 394.554 237.343C393.895 236.24 393.478 235.01 393.333 233.733C393.096 231.693 393.556 229.632 394.638 227.886C395.72 226.14 397.36 224.81 399.292 224.113C400.498 223.681 401.782 223.508 403.059 223.606C404.336 223.704 405.579 224.071 406.705 224.682C407.83 225.294 408.814 226.137 409.592 227.155C410.369 228.173 410.923 229.344 411.216 230.592C411.307 230.987 411.37 231.388 411.406 231.792L446.52 252.049L455.259 247.018L464.939 259.692L451.371 269.362C449.783 270.485 447.875 271.066 445.93 271.018C443.986 270.971 442.108 270.298 440.576 269.099V269.099Z" fill="#FFB8B8"/>
<path d="M469.243 263.638L449.117 249.952L458.576 236.556C459.831 234.777 461.676 233.499 463.783 232.949C465.889 232.398 468.123 232.61 470.089 233.547V233.547C472.077 234.495 473.661 236.122 474.555 238.136C475.448 240.149 475.592 242.416 474.961 244.526L469.243 263.638Z" fill="#6C63FF"/>
<path d="M471.479 197.278C466.261 200.849 459.41 204.52 454.081 200.717C450.581 198.22 449.479 193.596 450.898 189.538C453.45 182.24 460.461 179.027 467.166 176.565C475.881 173.363 485.372 170.816 494.369 173.109C503.367 175.402 511.319 184.113 509.695 193.256C508.389 200.607 501.454 206.725 502.438 214.127C503.429 221.576 511.807 225.497 519.203 226.828C526.599 228.16 534.875 228.588 540.19 233.9C546.971 240.677 545.278 252.79 538.898 259.946C532.517 267.101 522.889 270.344 513.559 272.549C501.198 275.47 487.829 277.006 476.088 272.157C464.348 267.309 455.212 254.258 458.613 242.02C460.05 236.851 463.434 232.482 466.704 228.229C469.975 223.976 473.287 219.528 474.534 214.31C475.574 209.962 474.804 204.913 471.921 201.651C471.396 201.08 471.066 200.358 470.978 199.587C470.89 198.817 471.048 198.039 471.429 197.364L471.479 197.278Z" fill="#2F2E41"/>
<path d="M90.1579 295.918C84.9265 297.757 79.3097 298.217 73.8486 297.255C68.3875 296.293 63.2662 293.941 58.9781 290.425C48.0572 281.259 44.6331 266.158 41.8471 252.175C39.1003 238.389 36.3535 224.602 33.6066 210.816L50.8589 222.695C63.2657 231.238 75.9521 240.055 84.5425 252.429C93.1329 264.803 96.8827 281.694 89.9805 295.083" fill="#E6E6E6"/>
<path d="M88.6832 345.991C90.4294 333.272 92.2249 320.39 91 307.534C89.9123 296.117 86.4291 284.966 79.3378 275.823C75.5738 270.979 70.9937 266.828 65.8034 263.558C64.4499 262.704 63.2042 264.849 64.5518 265.7C73.5325 271.375 80.4787 279.757 84.389 289.635C88.7078 300.62 89.4014 312.594 88.6572 324.263C88.2071 331.32 87.2532 338.331 86.292 345.332C86.2162 345.649 86.2635 345.982 86.4242 346.266C86.585 346.549 86.8472 346.76 87.158 346.857C87.475 346.943 87.8129 346.9 88.0985 346.738C88.384 346.576 88.5941 346.307 88.6832 345.991H88.6832Z" fill="#F2F2F2"/>
<path d="M71.8645 323.485C69.6209 326.895 66.5368 329.669 62.9095 331.542C59.2822 333.414 55.2339 334.32 51.1545 334.173C40.6708 333.676 31.9307 326.359 24.0629 319.412L0.791727 298.865L16.1934 298.128C27.2694 297.598 38.6311 297.104 49.1806 300.52C59.7301 303.935 69.4594 312.155 71.3884 323.075" fill="#E6E6E6"/>
<path d="M93.618 353.303C85.2134 338.432 75.4649 321.904 58.0459 316.621C53.2026 315.158 48.124 314.633 43.0838 315.076C41.4952 315.213 41.8919 317.662 43.4776 317.525C51.9261 316.824 60.3584 319.055 67.3548 323.843C74.0873 328.425 79.3293 334.796 83.766 341.552C86.4837 345.691 88.918 350.005 91.3527 354.313C92.1308 355.69 94.4052 354.696 93.618 353.303V353.303Z" fill="#F2F2F2"/>
<path d="M107.084 368.956C106.801 365.675 105.623 362.534 103.679 359.876C101.734 357.218 99.0971 355.145 96.0555 353.882V345.284H81.6357V354.153C78.7438 355.478 76.255 357.546 74.4231 360.147C72.5911 362.747 71.4815 365.787 71.2073 368.956L67.8166 408.371H110.475L107.084 368.956Z" fill="#F2F2F2"/>
</g>
<defs>
<clipPath id="clip0">
<rect width="572" height="413.193" fill="white"/>
</clipPath>
</defs>
</svg>
